<?xml version="1.0" encoding="UTF-8"?>
<svg xmlns="http://www.w3.org/2000/svg" version="1.1" xmlns:xlink="http://www.w3.org/1999/xlink" viewBox="0 0 2000 2000">
  <!-- Generator: Adobe Illustrator 29.8.4, SVG Export Plug-In . SVG Version: 2.1.1 Build 6)  -->
  <defs>
    <style>
      .st0 {
        fill: url(#linear-gradient2);
      }

      .st1 {
        fill: url(#New_Gradient_Swatch_147);
      }

      .st2 {
        fill: url(#linear-gradient1);
      }

      .st3 {
        fill: url(#New_Gradient_Swatch_143);
      }

      .st4 {
        fill: url(#New_Gradient_Swatch_142);
      }

      .st5 {
        isolation: isolate;
      }

      .st6 {
        fill: url(#New_Gradient_Swatch_144);
      }

      .st7 {
        fill: url(#New_Gradient_Swatch_14);
      }

      .st8 {
        fill: #fff;
        mix-blend-mode: overlay;
        opacity: .2;
      }

      .st9 {
        fill: url(#linear-gradient3);
      }

      .st10 {
        fill: url(#New_Gradient_Swatch_146);
      }

      .st11 {
        fill: url(#New_Gradient_Swatch_141);
      }

      .st12 {
        fill: url(#New_Gradient_Swatch_145);
      }

      .st13 {
        fill: url(#linear-gradient);
      }

      .st14 {
        mix-blend-mode: multiply;
        opacity: .3;
      }
    </style>
    <linearGradient id="linear-gradient" x1="10891.7" y1="347.1" x2="10891.7" y2="962.7" gradientTransform="translate(11312.9) rotate(-180) scale(1 -1)" gradientUnits="userSpaceOnUse">
      <stop offset="0" stop-color="#92e1d9"/>
      <stop offset="1" stop-color="#65beb5"/>
    </linearGradient>
    <linearGradient id="linear-gradient1" x1="10875.9" y1="839.5" x2="10780.1" y2="1272.5" xlink:href="#linear-gradient"/>
    <linearGradient id="New_Gradient_Swatch_14" data-name="New Gradient Swatch 14" x1="10744.3" y1="894.1" x2="10807.3" y2="1820.8" gradientTransform="translate(11312.9) rotate(-180) scale(1 -1)" gradientUnits="userSpaceOnUse">
      <stop offset="0" stop-color="#00cab6"/>
      <stop offset="1" stop-color="#00a895"/>
    </linearGradient>
    <linearGradient id="New_Gradient_Swatch_141" data-name="New Gradient Swatch 14" x1="10758.9" y1="898.9" x2="10821.4" y2="1818.9" xlink:href="#New_Gradient_Swatch_14"/>
    <linearGradient id="linear-gradient2" x1="1578.8" x2="1578.8" y2="962.7" gradientTransform="matrix(1,0,0,1,0,0)" xlink:href="#linear-gradient"/>
    <linearGradient id="linear-gradient3" x1="1563" y1="839.5" x2="1467.2" y2="1272.5" gradientTransform="matrix(1,0,0,1,0,0)" xlink:href="#linear-gradient"/>
    <linearGradient id="New_Gradient_Swatch_142" data-name="New Gradient Swatch 14" x1="1000.4" y1="368.6" x2="1000.4" y2="710" gradientTransform="matrix(1,0,0,1,0,0)" xlink:href="#New_Gradient_Swatch_14"/>
    <linearGradient id="New_Gradient_Swatch_143" data-name="New Gradient Swatch 14" x1="1431.4" y1="894.1" x2="1494.4" y2="1820.8" gradientTransform="matrix(1,0,0,1,0,0)" xlink:href="#New_Gradient_Swatch_14"/>
    <linearGradient id="New_Gradient_Swatch_144" data-name="New Gradient Swatch 14" x1="1461.8" y1="253.3" x2="1719.7" y2="1472.5" gradientTransform="matrix(1,0,0,1,0,0)" xlink:href="#New_Gradient_Swatch_14"/>
    <linearGradient id="New_Gradient_Swatch_145" data-name="New Gradient Swatch 14" x1="415.7" y1="474.6" x2="673.7" y2="1693.8" gradientTransform="matrix(1,0,0,1,0,0)" xlink:href="#New_Gradient_Swatch_14"/>
    <linearGradient id="New_Gradient_Swatch_146" data-name="New Gradient Swatch 14" x1="769.1" y1="384.4" x2="1027" y2="1603.7" gradientTransform="matrix(1,0,0,1,0,0)" xlink:href="#New_Gradient_Swatch_14"/>
    <linearGradient id="New_Gradient_Swatch_147" data-name="New Gradient Swatch 14" x1="1446" y1="898.9" x2="1508.5" y2="1818.9" gradientTransform="matrix(1,0,0,1,0,0)" xlink:href="#New_Gradient_Swatch_14"/>
  </defs>
  <g class="st5">
    <g id="Layer_1">
      <g>
        <path class="st13" d="M294.2,409.6c-225.1,142.8-269.9,476.8-88.2,808.8C7.5,875.8,13.4,533.8,261,360.6c199.7-139.6,388.4-54.1,516.1,48.4-131.6-75.3-302.2-114.1-482.8.5Z"/>
        <path class="st2" d="M355,909.4s45.4-3.1,67.4,50.5c22,53.5,63,217.2,234.5,286,171.5,68.8,73.3,160.6,73.3,160.6l-427.9-223.3-42.5-342.6s58.6-27.5,95.3,68.8Z"/>
        <path class="st7" d="M212.3,763.4c51.3,4.1,58.1,52.2,67.1,95,11.9,56.4,26.1,112.6,46.8,166.3,30.8,79.8,82.3,154.6,149.6,208.8,119.1,95.8,189.1,58.2,163.4,29-3.7-4.2-7.4-8.4-11-12.4-31.9-35.4-61.1-73.3-86.4-114.1-24.8-39.8-49.4-87.1-48.6-120.9,1.4-62.5,67-120.4,118.7-41,14.8,22.8,31.8,48.4,48.1,72.8,40.8,61.1,87.3,119.3,145.9,161.7,102.8,74.3,120.9,126,120.9,126,63.2,135.8,32.2,252.9-2.5,324.6-22.1,45.8-74.4,65.4-119.5,45.2-170.1-75.9-326.9-186.2-448.5-332.6-106.8-128.7-203-299.4-219.5-471.1-5.7-59.6-.7-143.5,75.7-137.4Z"/>
        <g class="st14">
          <path class="st11" d="M179,767.7c-10.2,27.7-10.1,63.8-7.2,93.7,16.6,171.7,112.7,342.4,219.5,471.1,121.5,146.5,278.4,256.7,448.5,332.6,28.4,12.7,59.6,9.6,84.3-5.8-22.2,45.7-74.3,65.3-119.5,45.2-170.1-75.9-326.9-186.2-448.5-332.6-106.8-128.7-203-299.4-219.5-471.1-4.8-49.4-2.1-115.4,42.4-133.1Z"/>
        </g>
        <path class="st0" d="M1705.8,409.6c225.1,142.8,269.9,476.8,88.2,808.8,198.6-342.6,192.7-684.6-54.9-857.8-199.7-139.6-388.4-54.1-516.1,48.4,131.6-75.3,302.2-114.1,482.8.5Z"/>
        <path class="st9" d="M1645,909.4s-45.4-3.1-67.4,50.5c-22,53.5-63,217.2-234.5,286-171.5,68.8-73.3,160.6-73.3,160.6l427.9-223.3,42.5-342.6s-58.6-27.5-95.3,68.8Z"/>
        <path class="st4" d="M1235.4,359.4c-125.1-82.1-235,74.8-235,74.8,0,0-109.9-156.9-235-74.8-84.1,55.2-89.2,219,8.8,337.3,57.8,69.7,119.9,121.1,226.3,155,106.4-33.9,168.5-85.3,226.3-155,98-118.3,92.9-282.1,8.8-337.3Z"/>
        <path class="st3" d="M1787.7,763.4c-51.3,4.1-58.1,52.2-67.1,95-11.9,56.4-26.1,112.6-46.8,166.3-30.8,79.8-82.3,154.6-149.6,208.8-119.1,95.8-189.1,58.2-163.4,29,3.7-4.2,7.4-8.4,11-12.4,31.9-35.4,61.1-73.3,86.4-114.1,24.8-39.8,49.4-87.1,48.6-120.9-1.4-62.5-67-120.4-118.7-41-14.8,22.8-31.8,48.4-48.1,72.8-40.8,61.1-87.3,119.3-145.9,161.7-102.8,74.3-120.9,126-120.9,126-63.2,135.8-32.2,252.9,2.5,324.6,22.1,45.8,74.4,65.4,119.5,45.2,170.1-75.9,326.9-186.2,448.5-332.6,106.8-128.7,203-299.4,219.5-471.1,5.7-59.6.7-143.5-75.7-137.4Z"/>
        <g>
          <path class="st6" d="M1587,667.2c23.8-2,46.8-5.8,67.2-11.4-20.4-5.6-43.4-9.4-67.3-11.4-5.2-.4-10-2.2-14.2-4.8,8.7-10.6,16.4-21.4,22.4-32-10.6,6-21.5,13.7-32,22.4-2.6-4.2-4.4-9-4.8-14.2-2-23.9-5.8-46.8-11.4-67.3-5.6,20.4-9.4,43.4-11.4,67.2-.4,5.2-2.2,10.1-4.8,14.2-10.6-8.7-21.4-16.4-32-22.4,6,10.6,13.7,21.4,22.4,32-4.2,2.6-9,4.4-14.2,4.8-23.9,2-46.8,5.8-67.2,11.4,20.4,5.6,43.4,9.4,67.2,11.4,5.2.4,10,2.1,14.2,4.8-8.7,10.6-16.4,21.4-22.4,32,10.6-6,21.4-13.7,32-22.4,2.6,4.2,4.4,9,4.8,14.2,2,23.8,5.8,46.8,11.4,67.2,5.6-20.4,9.4-43.4,11.4-67.2.4-5.2,2.1-10,4.8-14.2,10.6,8.7,21.4,16.4,32,22.4-6-10.6-13.7-21.5-22.4-32,4.2-2.6,9-4.4,14.2-4.8Z"/>
          <path class="st12" d="M567.4,684.2c-20.4-5.6-43.4-9.4-67.3-11.4-5.2-.4-10-2.2-14.2-4.8,8.7-10.6,16.4-21.4,22.4-32-10.6,6-21.5,13.7-32,22.4-2.6-4.2-4.4-9-4.8-14.2-2-23.9-5.8-46.8-11.4-67.3-5.6,20.4-9.4,43.4-11.4,67.2-.4,5.2-2.2,10.1-4.8,14.2-10.6-8.7-21.4-16.4-32-22.4,6,10.6,13.7,21.4,22.4,32-4.2,2.6-9,4.4-14.2,4.8-23.9,2-46.8,5.8-67.2,11.4,20.4,5.6,43.4,9.4,67.2,11.4,5.2.4,10,2.1,14.2,4.8-8.7,10.6-16.4,21.4-22.4,32,10.6-6,21.4-13.7,32-22.4,2.6,4.2,4.4,9,4.8,14.2,2,23.8,5.8,46.8,11.4,67.2,5.6-20.4,9.4-43.4,11.4-67.2.4-5.2,2.1-10,4.8-14.2,10.6,8.7,21.4,16.4,32,22.4-6-10.6-13.7-21.5-22.4-32,4.2-2.6,9-4.4,14.2-4.8,23.8-2,46.8-5.8,67.2-11.4Z"/>
          <path class="st10" d="M971.7,1040.6c-12.2-3.3-25.8-5.6-40-6.8-3.1-.3-6-1.3-8.4-2.9,5.2-6.3,9.7-12.8,13.3-19.1-6.3,3.6-12.8,8.2-19.1,13.3-1.6-2.5-2.6-5.3-2.9-8.5-1.2-14.2-3.5-27.9-6.8-40-3.3,12.2-5.6,25.8-6.8,40-.3,3.1-1.3,6-2.9,8.5-6.3-5.2-12.8-9.7-19.1-13.3,3.6,6.3,8.2,12.8,13.3,19.1-2.5,1.6-5.4,2.6-8.4,2.9-14.2,1.2-27.9,3.4-40,6.8,12.2,3.4,25.8,5.6,40,6.8,3.1.3,6,1.3,8.5,2.9-5.2,6.3-9.7,12.7-13.3,19.1,6.3-3.6,12.8-8.1,19.1-13.3,1.6,2.5,2.6,5.4,2.9,8.5,1.2,14.2,3.4,27.8,6.8,40,3.4-12.2,5.6-25.8,6.8-40,.3-3.1,1.3-6,2.8-8.4,6.3,5.2,12.8,9.7,19.1,13.3-3.6-6.3-8.2-12.8-13.3-19.1,2.5-1.6,5.3-2.6,8.4-2.9,14.2-1.2,27.8-3.5,40-6.8Z"/>
        </g>
        <g class="st14">
          <path class="st1" d="M1821,767.7c10.2,27.7,10.1,63.8,7.2,93.7-16.6,171.7-112.7,342.4-219.5,471.1-121.5,146.5-278.4,256.7-448.5,332.6-28.4,12.7-59.6,9.6-84.3-5.8,22.2,45.7,74.3,65.3,119.5,45.2,170.1-75.9,326.9-186.2,448.5-332.6,106.8-128.7,203-299.4,219.5-471.1,4.8-49.4,2.1-115.4-42.4-133.1Z"/>
        </g>
        <path class="st8" d="M765.4,415.1c125.1-82.1,235,74.8,235,74.8,0,0,109.9-156.9,235-74.8,35.4,23.2,56.7,65.7,62.4,115.8,7.8-73.4-14.4-140.1-62.4-171.5-125.1-82.1-235,74.8-235,74.8,0,0-109.9-156.9-235-74.8-47.9,31.4-70.1,98.1-62.4,171.5,5.6-50.2,27-92.6,62.4-115.8Z"/>
      </g>
    </g>
  </g>
</svg>