<?xml version="1.0" encoding="UTF-8"?>
<svg xmlns="http://www.w3.org/2000/svg" xmlns:xlink="http://www.w3.org/1999/xlink" viewBox="0 0 192.67 146.87">
  <defs>
    <style>
      .cls-1 {
        fill: url(#linear-gradient-2);
      }

      .cls-2 {
        fill: url(#New_Gradient_Swatch_14-4);
      }

      .cls-3 {
        fill: url(#linear-gradient-4);
      }

      .cls-4 {
        fill: url(#linear-gradient-3);
      }

      .cls-5 {
        isolation: isolate;
      }

      .cls-6 {
        fill: url(#New_Gradient_Swatch_14);
      }

      .cls-7 {
        fill: url(#New_Gradient_Swatch_14-6);
      }

      .cls-8 {
        fill: #fff;
        mix-blend-mode: overlay;
        opacity: .2;
      }

      .cls-9 {
        fill: url(#New_Gradient_Swatch_14-5);
      }

      .cls-10 {
        fill: url(#New_Gradient_Swatch_14-3);
      }

      .cls-11 {
        fill: url(#linear-gradient);
      }

      .cls-12 {
        mix-blend-mode: multiply;
        opacity: .3;
      }

      .cls-13 {
        fill: url(#New_Gradient_Swatch_14-8);
      }

      .cls-14 {
        fill: url(#New_Gradient_Swatch_14-2);
      }

      .cls-15 {
        fill: url(#New_Gradient_Swatch_14-7);
      }
    </style>
    <linearGradient id="linear-gradient" x1="11322.25" y1="6.13" x2="11322.25" y2="69.59" gradientTransform="translate(11358.93) rotate(-180) scale(1 -1)" gradientUnits="userSpaceOnUse">
      <stop offset="0" stop-color="#ade1d9"/>
      <stop offset="1" stop-color="#86beb5"/>
    </linearGradient>
    <linearGradient id="linear-gradient-2" x1="11320.62" y1="56.89" x2="11310.76" y2="101.52" xlink:href="#linear-gradient"/>
    <linearGradient id="New_Gradient_Swatch_14" data-name="New Gradient Swatch 14" x1="11307.06" y1="62.52" x2="11313.55" y2="158.04" gradientTransform="translate(11358.93) rotate(-180) scale(1 -1)" gradientUnits="userSpaceOnUse">
      <stop offset="0" stop-color="#48cab6"/>
      <stop offset="1" stop-color="#31a795"/>
    </linearGradient>
    <linearGradient id="New_Gradient_Swatch_14-2" data-name="New Gradient Swatch 14" x1="11308.57" y1="63.01" x2="11315.01" y2="157.85" xlink:href="#New_Gradient_Swatch_14"/>
    <linearGradient id="linear-gradient-3" x1="155.99" x2="155.99" gradientTransform="matrix(1,0,0,1,0,0)" xlink:href="#linear-gradient"/>
    <linearGradient id="linear-gradient-4" x1="154.36" y1="56.89" x2="144.5" y2="101.52" gradientTransform="matrix(1,0,0,1,0,0)" xlink:href="#linear-gradient"/>
    <linearGradient id="New_Gradient_Swatch_14-3" data-name="New Gradient Swatch 14" x1="96.38" y1="8.36" x2="96.38" y2="43.54" gradientTransform="matrix(1,0,0,1,0,0)" xlink:href="#New_Gradient_Swatch_14"/>
    <linearGradient id="New_Gradient_Swatch_14-4" data-name="New Gradient Swatch 14" x1="140.8" y1="62.52" x2="147.29" y2="158.04" gradientTransform="matrix(1,0,0,1,0,0)" xlink:href="#New_Gradient_Swatch_14"/>
    <linearGradient id="New_Gradient_Swatch_14-5" data-name="New Gradient Swatch 14" x1="143.94" y1="-3.53" x2="170.52" y2="122.14" gradientTransform="matrix(1,0,0,1,0,0)" xlink:href="#New_Gradient_Swatch_14"/>
    <linearGradient id="New_Gradient_Swatch_14-6" data-name="New Gradient Swatch 14" x1="36.11" y1="19.28" x2="62.7" y2="144.95" gradientTransform="matrix(1,0,0,1,0,0)" xlink:href="#New_Gradient_Swatch_14"/>
    <linearGradient id="New_Gradient_Swatch_14-7" data-name="New Gradient Swatch 14" x1="72.53" y1="9.98" x2="99.12" y2="135.66" gradientTransform="matrix(1,0,0,1,0,0)" xlink:href="#New_Gradient_Swatch_14"/>
    <linearGradient id="New_Gradient_Swatch_14-8" data-name="New Gradient Swatch 14" x1="142.31" y1="63.01" x2="148.75" y2="157.85" gradientTransform="matrix(1,0,0,1,0,0)" xlink:href="#New_Gradient_Swatch_14"/>
  </defs>
  <g class="cls-5">
    <g id="Layer_2" data-name="Layer 2">
      <g id="BACKGROUND">
        <g>
          <path class="cls-11" d="M23.59,12.58C.38,27.3-4.23,61.72,14.5,95.95-5.97,60.64-5.37,25.38,20.16,7.53c20.58-14.39,40.03-5.57,53.19,4.99-13.57-7.76-31.15-11.76-49.76.05Z"/>
          <path class="cls-1" d="M29.85,64.1s4.68-.32,6.95,5.2c2.27,5.52,6.49,22.39,24.17,29.48,17.67,7.09,7.55,16.55,7.55,16.55l-44.11-23.02-4.38-35.31s6.04-2.84,9.82,7.09Z"/>
          <path class="cls-6" d="M15.14,49.04c5.29.42,5.99,5.38,6.92,9.8,1.23,5.82,2.69,11.61,4.82,17.14,3.17,8.23,8.48,15.94,15.42,21.52,12.27,9.88,19.49,5.99,16.84,2.99-.39-.44-.77-.86-1.14-1.27-3.28-3.65-6.3-7.56-8.91-11.76-2.56-4.11-5.09-8.97-5.01-12.46.15-6.44,6.91-12.41,12.24-4.22,1.53,2.35,3.28,4.99,4.95,7.5,4.2,6.29,9,12.3,15.04,16.66,10.59,7.65,12.46,12.99,12.46,12.99,6.51,14,3.32,26.06-.26,33.45-2.28,4.72-7.66,6.74-12.32,4.66-17.53-7.82-33.7-19.19-46.23-34.29-11.01-13.27-20.92-30.86-22.63-48.56-.59-6.14-.07-14.8,7.8-14.16Z"/>
          <g class="cls-12">
            <path class="cls-14" d="M11.71,49.48c-1.06,2.86-1.04,6.58-.74,9.66,1.71,17.7,11.62,35.29,22.63,48.56,12.53,15.1,28.7,26.46,46.23,34.29,2.93,1.31,6.14.99,8.69-.6-2.28,4.71-7.66,6.73-12.32,4.66-17.53-7.82-33.7-19.19-46.23-34.29-11.01-13.27-20.92-30.86-22.63-48.56-.49-5.09-.21-11.89,4.37-13.72Z"/>
          </g>
          <path class="cls-4" d="M169.08,12.58c23.21,14.72,27.82,49.15,9.09,83.37,20.47-35.31,19.86-70.57-5.66-88.42-20.58-14.39-40.03-5.57-53.19,4.99,13.57-7.76,31.15-11.76,49.76.05Z"/>
          <path class="cls-3" d="M162.82,64.1s-4.68-.32-6.95,5.2c-2.27,5.52-6.5,22.39-24.17,29.48-17.67,7.09-7.55,16.55-7.55,16.55l44.11-23.02,4.38-35.31s-6.04-2.84-9.82,7.09Z"/>
          <path class="cls-10" d="M120.6,7.41c-12.89-8.46-24.23,7.71-24.23,7.71,0,0-11.33-16.17-24.23-7.71-8.67,5.69-9.2,22.58.9,34.77,5.95,7.19,12.36,12.49,23.32,15.98,10.96-3.49,17.37-8.79,23.32-15.98,10.1-12.19,9.58-29.08.9-34.77Z"/>
          <path class="cls-2" d="M177.53,49.04c-5.29.42-5.99,5.38-6.92,9.8-1.23,5.82-2.69,11.61-4.82,17.14-3.17,8.23-8.48,15.94-15.42,21.52-12.27,9.88-19.49,5.99-16.84,2.99.39-.44.77-.86,1.14-1.27,3.28-3.65,6.3-7.56,8.91-11.76,2.56-4.11,5.09-8.97,5.01-12.46-.15-6.44-6.91-12.41-12.24-4.22-1.53,2.35-3.28,4.99-4.95,7.5-4.2,6.29-9,12.3-15.04,16.66-10.59,7.65-12.46,12.99-12.46,12.99-6.51,14-3.32,26.06.26,33.45,2.28,4.72,7.66,6.74,12.32,4.66,17.53-7.82,33.7-19.19,46.23-34.29,11.01-13.27,20.92-30.86,22.63-48.56.59-6.14.07-14.8-7.8-14.16Z"/>
          <g>
            <path class="cls-9" d="M156.84,39.13c2.46-.21,4.82-.6,6.93-1.18-2.11-.58-4.47-.97-6.93-1.18-.54-.05-1.03-.22-1.46-.49.9-1.09,1.69-2.21,2.31-3.3-1.09.62-2.21,1.42-3.3,2.31-.27-.43-.45-.93-.49-1.46-.21-2.46-.6-4.83-1.18-6.93-.58,2.11-.97,4.47-1.18,6.93-.05.54-.22,1.04-.5,1.47-1.09-.89-2.21-1.69-3.3-2.31.62,1.09,1.41,2.21,2.31,3.3-.43.27-.93.45-1.46.49-2.46.21-4.83.6-6.93,1.18,2.11.58,4.47.97,6.93,1.18.54.04,1.03.22,1.46.49-.89,1.09-1.69,2.21-2.31,3.3,1.09-.62,2.21-1.41,3.3-2.31.27.43.45.93.49,1.46.2,2.46.6,4.82,1.18,6.93.58-2.11.97-4.47,1.18-6.93.04-.54.22-1.03.49-1.46,1.09.89,2.21,1.69,3.3,2.31-.62-1.09-1.41-2.21-2.31-3.3.43-.27.93-.45,1.46-.5Z"/>
            <path class="cls-7" d="M51.74,40.88c-2.11-.58-4.47-.97-6.93-1.18-.54-.05-1.03-.22-1.46-.49.89-1.09,1.69-2.21,2.31-3.3-1.09.62-2.21,1.42-3.3,2.31-.27-.43-.45-.93-.49-1.46-.21-2.46-.6-4.83-1.18-6.93-.58,2.11-.97,4.47-1.18,6.93-.05.54-.22,1.04-.5,1.47-1.09-.89-2.21-1.69-3.3-2.31.62,1.09,1.41,2.21,2.31,3.3-.43.27-.93.45-1.46.49-2.46.2-4.83.6-6.93,1.18,2.11.58,4.47.97,6.93,1.18.54.04,1.03.22,1.46.49-.89,1.09-1.69,2.21-2.31,3.3,1.09-.62,2.21-1.41,3.3-2.31.27.43.45.93.49,1.46.2,2.46.6,4.82,1.18,6.93.58-2.11.97-4.47,1.18-6.93.04-.54.22-1.03.49-1.46,1.09.89,2.21,1.69,3.3,2.31-.62-1.09-1.41-2.21-2.31-3.3.43-.27.93-.45,1.46-.5,2.46-.21,4.82-.6,6.93-1.18Z"/>
            <path class="cls-15" d="M93.42,77.62c-1.25-.34-2.66-.58-4.13-.7-.32-.03-.62-.13-.87-.29.53-.65,1-1.32,1.37-1.97-.65.37-1.32.84-1.97,1.37-.16-.26-.27-.55-.29-.87-.12-1.46-.36-2.87-.7-4.13-.34,1.25-.58,2.66-.7,4.12-.03.32-.13.62-.3.87-.65-.53-1.32-1-1.96-1.37.37.65.84,1.32,1.37,1.96-.26.16-.55.27-.87.29-1.46.12-2.87.36-4.12.7,1.25.35,2.66.58,4.12.7.32.03.62.13.87.29-.53.65-1,1.31-1.37,1.96.65-.37,1.32-.84,1.96-1.37.16.26.27.55.29.87.12,1.46.36,2.87.7,4.12.35-1.25.58-2.66.7-4.12.03-.32.13-.61.29-.87.65.53,1.31,1,1.97,1.37-.37-.65-.84-1.32-1.37-1.97.26-.16.55-.27.87-.29,1.46-.12,2.87-.36,4.12-.7Z"/>
          </g>
          <g class="cls-12">
            <path class="cls-13" d="M180.96,49.48c1.06,2.86,1.04,6.58.74,9.66-1.71,17.7-11.62,35.29-22.63,48.56-12.53,15.1-28.7,26.46-46.23,34.29-2.93,1.31-6.14.99-8.69-.6,2.28,4.71,7.66,6.73,12.32,4.66,17.53-7.82,33.7-19.19,46.23-34.29,11.01-13.27,20.92-30.86,22.63-48.56.49-5.09.21-11.89-4.37-13.72Z"/>
          </g>
          <path class="cls-8" d="M72.15,13.15c12.89-8.46,24.23,7.71,24.23,7.71,0,0,11.33-16.17,24.23-7.71,3.65,2.39,5.85,6.77,6.43,11.94.8-7.57-1.49-14.44-6.43-17.68-12.89-8.46-24.23,7.71-24.23,7.71,0,0-11.33-16.17-24.23-7.71-4.94,3.24-7.23,10.11-6.43,17.68.58-5.17,2.78-9.55,6.43-11.94Z"/>
        </g>
      </g>
    </g>
  </g>
</svg>